<?xml version="1.0" encoding="UTF-8" standalone="no"?>
<!-- Created with Inkscape (http://www.inkscape.org/) -->
<svg xmlns:dc="http://purl.org/dc/elements/1.1/" xmlns:cc="http://creativecommons.org/ns#" xmlns:rdf="http://www.w3.org/1999/02/22-rdf-syntax-ns#" xmlns:svg="http://www.w3.org/2000/svg" xmlns="http://www.w3.org/2000/svg" xmlns:sodipodi="http://sodipodi.sourceforge.net/DTD/sodipodi-0.dtd" xmlns:inkscape="http://www.inkscape.org/namespaces/inkscape" version="1.1" viewBox="0 0 21000 29700" id="svg4629" xml:space="preserve" style="fill-rule:evenodd;transform: translate(-6.6%, -29%);" inkscape:version="0.48.2 r9819" sodipodi:docname="ancient_greek_fret_pattern.svg"><sodipodi:namedview pagecolor="#ffffff" bordercolor="#666666" borderopacity="1" objecttolerance="10" gridtolerance="10" guidetolerance="10" inkscape:pageopacity="0" inkscape:pageshadow="2" inkscape:window-width="1920" inkscape:window-height="100" id="namedview4635" showgrid="false" inkscape:zoom="0.5570245" inkscape:cx="1049.0283" inkscape:cy="745.77886" inkscape:window-x="-8" inkscape:window-y="-8" inkscape:window-maximized="1" inkscape:current-layer="svg4629"/>
 <line style="fill:none;stroke:#000000;stroke-width:15.25247192;stroke-linejoin:bevel" id="line4639" y2="9245.0684" x2="20600.234" y1="9245.0684" x1="521.81628" class="fil1 str1"/><line style="fill:none;stroke:#000000;stroke-width:15.25247192;stroke-linejoin:bevel" id="line4641" y2="9245.0684" x2="20600.234" y1="8574.5205" x1="20600.234" class="fil1 str1"/><line style="fill:none;stroke:#000000;stroke-width:15.25247192;stroke-linejoin:bevel" id="line4643" y2="8574.5205" x2="20600.234" y1="8574.5205" x1="521.81628" class="fil1 str1"/><line style="fill:none;stroke:#000000;stroke-width:15.25247192;stroke-linejoin:bevel" id="line4645" y2="9245.0684" x2="521.81628" y1="8574.5205" x1="521.81628" class="fil1 str1"/><line style="fill:none;stroke:#000000;stroke-width:15.25247192;stroke-linejoin:bevel" id="line4647" y2="17275.637" x2="20600.234" y1="17275.637" x1="521.81628" class="fil1 str1"/><line style="fill:none;stroke:#000000;stroke-width:15.25247192;stroke-linejoin:bevel" id="line4649" y2="16607.088" x2="20600.234" y1="17275.637" x1="20600.234" class="fil1 str1"/><line style="fill:none;stroke:#000000;stroke-width:15.25247192;stroke-linejoin:bevel" id="line4651" y2="16607.088" x2="20600.234" y1="16607.088" x1="521.81628" class="fil1 str1"/><line style="fill:none;stroke:#000000;stroke-width:15.25247192;stroke-linejoin:bevel" id="line4653" y2="17275.637" x2="521.81628" y1="16607.088" x1="521.81628" class="fil1 str1"/><line style="fill:none;stroke:#000000;stroke-width:15.25247192;stroke-linejoin:bevel" id="line4655" y2="15938.542" x2="7883.8364" y1="15938.542" x1="1858.9095" class="fil1 str1"/><line style="fill:none;stroke:#000000;stroke-width:15.25247192;stroke-linejoin:bevel" id="line4657" y2="10582.161" x2="7883.8364" y1="15938.542" x1="7883.8364" class="fil1 str1"/><line style="fill:none;stroke:#000000;stroke-width:15.25247192;stroke-linejoin:bevel" id="line4659" y2="10582.161" x2="12569.668" y1="10582.161" x1="7883.8364" class="fil1 str1"/><line style="fill:none;stroke:#000000;stroke-width:15.25247192;stroke-linejoin:bevel" id="line4661" y2="10582.161" x2="12569.668" y1="13928.898" x1="12569.668" class="fil1 str1"/><line style="fill:none;stroke:#000000;stroke-width:15.25247192;stroke-linejoin:bevel" id="line4663" y2="13928.898" x2="12569.668" y1="13928.898" x1="10562.026" class="fil1 str1"/><line style="fill:none;stroke:#000000;stroke-width:15.25247192;stroke-linejoin:bevel" id="line4665" y2="13928.898" x2="10562.026" y1="13260.353" x1="10562.026" class="fil1 str1"/><line style="fill:none;stroke:#000000;stroke-width:15.25247192;stroke-linejoin:bevel" id="line4667" y2="13260.353" x2="10562.026" y1="13260.353" x1="11899.119" class="fil1 str1"/><line style="fill:none;stroke:#000000;stroke-width:15.25247192;stroke-linejoin:bevel" id="line4669" y2="13260.353" x2="11899.119" y1="11252.71" x1="11899.119" class="fil1 str1"/><line style="fill:none;stroke:#000000;stroke-width:15.25247192;stroke-linejoin:bevel" id="line4671" y2="11252.71" x2="11899.119" y1="11252.71" x1="8552.3828" class="fil1 str1"/><line style="fill:none;stroke:#000000;stroke-width:15.25247192;stroke-linejoin:bevel" id="line4673" y2="15938.542" x2="8552.3828" y1="11252.71" x1="8552.3828" class="fil1 str1"/><line style="fill:none;stroke:#000000;stroke-width:15.25247192;stroke-linejoin:bevel" id="line4675" y2="15938.542" x2="14577.309" y1="15938.542" x1="8552.3828" class="fil1 str1"/><line style="fill:none;stroke:#000000;stroke-width:15.25247192;stroke-linejoin:bevel" id="line4677" y2="10582.161" x2="14577.309" y1="15938.542" x1="14577.309" class="fil1 str1"/><line style="fill:none;stroke:#000000;stroke-width:15.25247192;stroke-linejoin:bevel" id="line4679" y2="10582.161" x2="19263.141" y1="10582.161" x1="14577.309" class="fil1 str1"/><line style="fill:none;stroke:#000000;stroke-width:15.25247192;stroke-linejoin:bevel" id="line4681" y2="10582.161" x2="19263.141" y1="13928.898" x1="19263.141" class="fil1 str1"/><line style="fill:none;stroke:#000000;stroke-width:15.25247192;stroke-linejoin:bevel" id="line4683" y2="13928.898" x2="19263.141" y1="13928.898" x1="17253.498" class="fil1 str1"/><line style="fill:none;stroke:#000000;stroke-width:15.25247192;stroke-linejoin:bevel" id="line4685" y2="13928.898" x2="17253.498" y1="13260.353" x1="17253.498" class="fil1 str1"/><line style="fill:none;stroke:#000000;stroke-width:15.25247192;stroke-linejoin:bevel" id="line4687" y2="13260.353" x2="17253.498" y1="13260.353" x1="18592.594" class="fil1 str1"/><line style="fill:none;stroke:#000000;stroke-width:15.25247192;stroke-linejoin:bevel" id="line4689" y2="13260.353" x2="18592.594" y1="11252.71" x1="18592.594" class="fil1 str1"/><line style="fill:none;stroke:#000000;stroke-width:15.25247192;stroke-linejoin:bevel" id="line4691" y2="11252.71" x2="18592.594" y1="11252.71" x1="15245.856" class="fil1 str1"/><line style="fill:none;stroke:#000000;stroke-width:15.25247192;stroke-linejoin:bevel" id="line4693" y2="15938.542" x2="15245.856" y1="11252.71" x1="15245.856" class="fil1 str1"/><line style="fill:none;stroke:#000000;stroke-width:15.25247192;stroke-linejoin:bevel" id="line4695" y2="15938.542" x2="20600.234" y1="15938.542" x1="15245.856" class="fil1 str1"/><line style="fill:none;stroke:#000000;stroke-width:15.25247192;stroke-linejoin:bevel" id="line4697" y2="15938.542" x2="20600.234" y1="15267.994" x1="20600.234" class="fil1 str1"/><line style="fill:none;stroke:#000000;stroke-width:15.25247192;stroke-linejoin:bevel" id="line4699" y2="15267.994" x2="20600.234" y1="15267.994" x1="15916.404" class="fil1 str1"/><line style="fill:none;stroke:#000000;stroke-width:15.25247192;stroke-linejoin:bevel" id="line4701" y2="15267.994" x2="15916.404" y1="11921.257" x1="15916.404" class="fil1 str1"/><line style="fill:none;stroke:#000000;stroke-width:15.25247192;stroke-linejoin:bevel" id="line4703" y2="11921.257" x2="15916.404" y1="11921.257" x1="17924.047" class="fil1 str1"/><line style="fill:none;stroke:#000000;stroke-width:15.25247192;stroke-linejoin:bevel" id="line4705" y2="11921.257" x2="17924.047" y1="12591.806" x1="17924.047" class="fil1 str1"/><line style="fill:none;stroke:#000000;stroke-width:15.25247192;stroke-linejoin:bevel" id="line4707" y2="12591.806" x2="17924.047" y1="12591.806" x1="16584.951" class="fil1 str1"/><line style="fill:none;stroke:#000000;stroke-width:15.25247192;stroke-linejoin:bevel" id="line4709" y2="12591.806" x2="16584.951" y1="14599.447" x1="16584.951" class="fil1 str1"/><line style="fill:none;stroke:#000000;stroke-width:15.25247192;stroke-linejoin:bevel" id="line4711" y2="14599.447" x2="16584.951" y1="14599.447" x1="19931.688" class="fil1 str1"/><line style="fill:none;stroke:#000000;stroke-width:15.25247192;stroke-linejoin:bevel" id="line4713" y2="14599.447" x2="19931.688" y1="9913.6152" x1="19931.688" class="fil1 str1"/><line style="fill:none;stroke:#000000;stroke-width:15.25247192;stroke-linejoin:bevel" id="line4715" y2="9913.6152" x2="19931.688" y1="9913.6152" x1="13906.762" class="fil1 str1"/><line style="fill:none;stroke:#000000;stroke-width:15.25247192;stroke-linejoin:bevel" id="line4717" y2="15267.994" x2="13906.762" y1="9913.6152" x1="13906.762" class="fil1 str1"/><line style="fill:none;stroke:#000000;stroke-width:15.25247192;stroke-linejoin:bevel" id="line4719" y2="15267.994" x2="13906.762" y1="15267.994" x1="9222.9307" class="fil1 str1"/><line style="fill:none;stroke:#000000;stroke-width:15.25247192;stroke-linejoin:bevel" id="line4721" y2="15267.994" x2="9222.9307" y1="11921.257" x1="9222.9307" class="fil1 str1"/><line style="fill:none;stroke:#000000;stroke-width:15.25247192;stroke-linejoin:bevel" id="line4723" y2="11921.257" x2="9222.9307" y1="11921.257" x1="11230.573" class="fil1 str1"/><line style="fill:none;stroke:#000000;stroke-width:15.25247192;stroke-linejoin:bevel" id="line4725" y2="11921.257" x2="11230.573" y1="12591.806" x1="11230.573" class="fil1 str1"/><line style="fill:none;stroke:#000000;stroke-width:15.25247192;stroke-linejoin:bevel" id="line4727" y2="12591.806" x2="11230.573" y1="12591.806" x1="9891.4775" class="fil1 str1"/><line style="fill:none;stroke:#000000;stroke-width:15.25247192;stroke-linejoin:bevel" id="line4729" y2="12591.806" x2="9891.4775" y1="14599.447" x1="9891.4775" class="fil1 str1"/><line style="fill:none;stroke:#000000;stroke-width:15.25247192;stroke-linejoin:bevel" id="line4731" y2="14599.447" x2="9891.4775" y1="14599.447" x1="13238.215" class="fil1 str1"/><line style="fill:none;stroke:#000000;stroke-width:15.25247192;stroke-linejoin:bevel" id="line4733" y2="14599.447" x2="13238.215" y1="9913.6152" x1="13238.215" class="fil1 str1"/><line style="fill:none;stroke:#000000;stroke-width:15.25247192;stroke-linejoin:bevel" id="line4735" y2="9913.6152" x2="13238.215" y1="9913.6152" x1="7215.2896" class="fil1 str1"/><line style="fill:none;stroke:#000000;stroke-width:15.25247192;stroke-linejoin:bevel" id="line4737" y2="9913.6152" x2="7215.2896" y1="15267.994" x1="7215.2896" class="fil1 str1"/><line style="fill:none;stroke:#000000;stroke-width:15.25247192;stroke-linejoin:bevel" id="line4739" y2="15267.994" x2="7215.2896" y1="15267.994" x1="2529.4578" class="fil1 str1"/><line style="fill:none;stroke:#000000;stroke-width:15.25247192;stroke-linejoin:bevel" id="line4741" y2="15267.994" x2="2529.4578" y1="11921.257" x1="2529.4578" class="fil1 str1"/><line style="fill:none;stroke:#000000;stroke-width:15.25247192;stroke-linejoin:bevel" id="line4743" y2="11921.257" x2="2529.4578" y1="11921.257" x1="4537.0996" class="fil1 str1"/><line style="fill:none;stroke:#000000;stroke-width:15.25247192;stroke-linejoin:bevel" id="line4745" y2="11921.257" x2="4537.0996" y1="12591.806" x1="4537.0996" class="fil1 str1"/><line style="fill:none;stroke:#000000;stroke-width:15.25247192;stroke-linejoin:bevel" id="line4747" y2="12591.806" x2="4537.0996" y1="12591.806" x1="3198.0046" class="fil1 str1"/><line style="fill:none;stroke:#000000;stroke-width:15.25247192;stroke-linejoin:bevel" id="line4749" y2="12591.806" x2="3198.0046" y1="14599.447" x1="3198.0046" class="fil1 str1"/><line style="fill:none;stroke:#000000;stroke-width:15.25247192;stroke-linejoin:bevel" id="line4751" y2="14599.447" x2="3198.0046" y1="14599.447" x1="6544.7412" class="fil1 str1"/><line style="fill:none;stroke:#000000;stroke-width:15.25247192;stroke-linejoin:bevel" id="line4753" y2="14599.447" x2="6544.7412" y1="9913.6152" x1="6544.7412" class="fil1 str1"/><line style="fill:none;stroke:#000000;stroke-width:15.25247192;stroke-linejoin:bevel" id="line4755" y2="9913.6152" x2="6544.7412" y1="9913.6152" x1="521.81628" class="fil1 str1"/><line style="fill:none;stroke:#000000;stroke-width:15.25247192;stroke-linejoin:bevel" id="line4757" y2="15938.542" x2="521.81628" y1="9913.6152" x1="521.81628" class="fil1 str1"/><line style="fill:none;stroke:#000000;stroke-width:15.25247192;stroke-linejoin:bevel" id="line4759" y2="15938.542" x2="1190.363" y1="15938.542" x1="521.81628" class="fil1 str1"/><line style="fill:none;stroke:#000000;stroke-width:15.25247192;stroke-linejoin:bevel" id="line4761" y2="10582.161" x2="1190.363" y1="15938.542" x1="1190.363" class="fil1 str1"/><line style="fill:none;stroke:#000000;stroke-width:15.25247192;stroke-linejoin:bevel" id="line4763" y2="10582.161" x2="5876.1943" y1="10582.161" x1="1190.363" class="fil1 str1"/><line style="fill:none;stroke:#000000;stroke-width:15.25247192;stroke-linejoin:bevel" id="line4765" y2="10582.161" x2="5876.1943" y1="13928.898" x1="5876.1943" class="fil1 str1"/><line style="fill:none;stroke:#000000;stroke-width:15.25247192;stroke-linejoin:bevel" id="line4767" y2="13928.898" x2="5876.1943" y1="13928.898" x1="3868.553" class="fil1 str1"/><line style="fill:none;stroke:#000000;stroke-width:15.25247192;stroke-linejoin:bevel" id="line4769" y2="13928.898" x2="3868.553" y1="13260.353" x1="3868.553" class="fil1 str1"/><line style="fill:none;stroke:#000000;stroke-width:15.25247192;stroke-linejoin:bevel" id="line4771" y2="13260.353" x2="3868.553" y1="13260.353" x1="5205.6465" class="fil1 str1"/><line style="fill:none;stroke:#000000;stroke-width:15.25247192;stroke-linejoin:bevel" id="line4773" y2="13260.353" x2="5205.6465" y1="11252.71" x1="5205.6465" class="fil1 str1"/><line style="fill:none;stroke:#000000;stroke-width:15.25247192;stroke-linejoin:bevel" id="line4775" y2="11252.71" x2="5205.6465" y1="11252.71" x1="1858.9095" class="fil1 str1"/><line style="fill:none;stroke:#000000;stroke-width:15.25247192;stroke-linejoin:bevel" id="line4777" y2="15938.542" x2="1858.9095" y1="11252.71" x1="1858.9095" class="fil1 str1"/><polygon points="518,8562 518,8897 10549,8897 10549,8562 " id="polygon6237" style="fill:#000000;stroke:#000000;stroke-width:7.61999989" transform="matrix(2.0016367,0,0,2.0016367,-515.03161,-8563.4935)"/><polygon points="2524,10234 2524,10569 1855,10569 1855,11572 3527,11572 3527,9231 518,9231 518,12241 852,12241 852,9565 3193,9565 3193,11237 2190,11237 2190,10903 2858,10903 2858,9900 1186,9900 1186,12241 4196,12241 4196,9565 6537,9565 6537,11237 5534,11237 5534,10903 6202,10903 6202,9900 4530,9900 4530,12241 7540,12241 7540,9565 9881,9565 9881,11237 8877,11237 8877,10903 9546,10903 9546,9900 7874,9900 7874,12241 10549,12241 10549,11906 8209,11906 8209,10234 9212,10234 9212,10569 8543,10569 8543,11572 10215,11572 10215,9231 7205,9231 7205,11906 4865,11906 4865,10234 5868,10234 5868,10569 5199,10569 5199,11572 6871,11572 6871,9231 3862,9231 3862,11906 1521,11906 1521,10234 " id="polygon6239" style="fill:#000000;stroke:#000000;stroke-width:7.61999989" transform="matrix(2.0016367,0,0,2.0016367,-515.03161,-8563.4935)"/><polygon points="518,12575 518,12909 10549,12909 10549,12575 " id="polygon6241" style="fill:#000000;stroke:#000000;stroke-width:7.61999989" transform="matrix(2.0016367,0,0,2.0016367,-515.03161,-8563.4935)"/>


</svg>